<svg width="162" height="62" viewBox="0 0 162 62" fill="none" xmlns="http://www.w3.org/2000/svg">
<g clip-path="url(#clip0_1_2)">
<path d="M64.8149 23.04C66.4469 23.04 67.6149 23.84 68.3189 25.44C69.0549 27.04 69.4229 29.248 69.4229 32.064C69.4229 33.888 69.2629 35.76 68.9429 37.68C68.6229 39.6 68.0789 41.344 67.3109 42.912C66.5429 44.48 65.5189 45.776 64.2389 46.8C62.9909 47.792 61.4229 48.288 59.5349 48.288C57.9349 48.288 56.5749 47.936 55.4549 47.232C54.3349 46.528 53.5029 45.536 52.9589 44.256C52.5429 45.152 52.0789 45.872 51.5669 46.416C51.0549 46.928 50.5269 47.328 49.9829 47.616C49.4389 47.904 48.8949 48.08 48.3509 48.144C47.8069 48.24 47.2949 48.288 46.8149 48.288C44.5429 48.288 42.8949 47.616 41.8709 46.272C40.8789 44.928 40.3829 43.12 40.3829 40.848V24H47.2949V40.32C47.2949 41.536 47.4549 42.4 47.7749 42.912C48.1269 43.392 48.6229 43.632 49.2629 43.632C50.1269 43.632 50.8149 43.232 51.3269 42.432C51.8389 41.632 52.1429 40.624 52.2389 39.408V24H59.1509V40.32C59.1509 41.472 59.3109 42.32 59.6309 42.864C59.9509 43.376 60.4789 43.632 61.2149 43.632C62.1429 43.632 62.9429 43.264 63.6149 42.528C64.2869 41.792 64.8309 40.848 65.2469 39.696C65.6949 38.544 66.0149 37.264 66.2069 35.856C66.4309 34.448 66.5429 33.072 66.5429 31.728C66.5429 30.256 66.4149 28.88 66.1589 27.6C66.0949 27.76 65.8869 27.888 65.5349 27.984C65.1829 28.048 64.9109 28.08 64.7189 28.08C64.3669 28.08 64.0469 27.984 63.7589 27.792C63.5029 27.6 63.2629 27.36 63.0389 27.072C62.8469 26.752 62.6869 26.416 62.5589 26.064C62.4629 25.712 62.4149 25.376 62.4149 25.056C62.4149 24.48 62.6069 24 62.9909 23.616C63.4069 23.232 64.0149 23.04 64.8149 23.04ZM79.9893 14.4V40.32C79.9893 41.664 80.1653 42.56 80.5173 43.008C80.9013 43.424 81.5573 43.632 82.4853 43.632C83.4133 43.632 84.1813 43.232 84.7893 42.432C85.4293 41.632 85.7973 40.624 85.8933 39.408H87.9093C87.6533 41.36 87.2053 42.928 86.5653 44.112C85.9253 45.264 85.2053 46.16 84.4053 46.8C83.6053 47.408 82.7893 47.808 81.9573 48C81.1253 48.192 80.3893 48.288 79.7493 48.288C77.2853 48.288 75.5573 47.616 74.5653 46.272C73.5733 44.896 73.0773 43.088 73.0773 40.848V15.36L79.9893 14.4ZM93.7461 22.224V25.824C94.2901 25.248 94.9781 24.768 95.8101 24.384C96.6421 23.968 97.6501 23.76 98.8341 23.76C99.9221 23.76 100.946 23.968 101.906 24.384C102.898 24.8 103.762 25.472 104.498 26.4C105.266 27.296 105.874 28.496 106.322 30C106.77 31.504 106.994 33.328 106.994 35.472C106.994 37.008 106.85 38.544 106.562 40.08C106.306 41.616 105.842 42.992 105.17 44.208C104.498 45.424 103.586 46.416 102.434 47.184C101.314 47.92 99.9061 48.288 98.2101 48.288C96.9941 48.288 96.0341 48.128 95.3301 47.808C94.6261 47.456 94.0981 47.056 93.7461 46.608V58.272L86.8341 60V22.224H93.7461ZM95.9061 44.112C96.7381 44.112 97.4421 43.84 98.0181 43.296C98.5941 42.72 99.0421 41.984 99.3621 41.088C99.7141 40.192 99.9541 39.2 100.082 38.112C100.242 36.992 100.322 35.888 100.322 34.8C100.322 33.04 100.162 31.648 99.8421 30.624C99.5541 29.6 99.2021 28.848 98.7861 28.368C98.3701 27.856 97.9541 27.536 97.5381 27.408C97.1541 27.28 96.8501 27.216 96.6261 27.216C96.0501 27.216 95.4901 27.424 94.9461 27.84C94.4021 28.224 94.0021 28.816 93.7461 29.616V43.008C93.9061 43.264 94.1621 43.52 94.5141 43.776C94.8661 44 95.3301 44.112 95.9061 44.112ZM122.439 33.456C122.439 31.536 122.231 30.176 121.815 29.376C121.399 28.576 120.791 28.176 119.991 28.176C119.511 28.176 119.095 28.304 118.743 28.56C118.423 28.816 118.151 29.152 117.927 29.568C117.703 29.984 117.527 30.464 117.399 31.008C117.271 31.52 117.191 32.048 117.159 32.592V48H110.247V15.36L117.159 14.4V26.496C117.895 25.376 118.727 24.656 119.655 24.336C120.583 23.984 121.463 23.808 122.295 23.808C123.191 23.808 124.039 23.952 124.839 24.24C125.671 24.528 126.391 25.024 126.999 25.728C127.639 26.4 128.135 27.312 128.487 28.464C128.839 29.584 129.015 30.976 129.015 32.64C129.015 33.056 128.999 33.584 128.967 34.224C128.967 34.832 128.951 35.456 128.919 36.096C128.887 36.736 128.855 37.36 128.823 37.968C128.823 38.576 128.823 39.088 128.823 39.504C128.823 40.88 128.983 41.92 129.303 42.624C129.655 43.296 130.327 43.632 131.319 43.632C131.863 43.632 132.311 43.536 132.663 43.344C133.015 43.12 133.303 42.816 133.527 42.432C133.751 42.048 133.927 41.6 134.055 41.088C134.215 40.576 134.359 40.016 134.487 39.408H136.503C136.247 41.328 135.863 42.88 135.351 44.064C134.839 45.216 134.247 46.112 133.575 46.752C132.935 47.36 132.247 47.776 131.511 48C130.775 48.192 130.055 48.288 129.351 48.288C126.887 48.288 125.095 47.472 123.975 45.84C122.887 44.208 122.343 42.032 122.343 39.312C122.343 39.024 122.343 38.624 122.343 38.112C122.375 37.568 122.391 37.008 122.391 36.432C122.391 35.856 122.391 35.296 122.391 34.752C122.423 34.208 122.439 33.776 122.439 33.456ZM155.218 24V40.32C155.218 41.664 155.394 42.56 155.746 43.008C156.13 43.424 156.786 43.632 157.714 43.632C158.098 43.632 158.418 43.568 158.674 43.44C158.386 45.232 157.97 46.496 157.426 47.232C156.914 47.936 155.986 48.288 154.642 48.288C153.042 48.288 151.826 47.888 150.994 47.088C150.162 46.288 149.586 45.216 149.266 43.872C149.01 44.416 148.706 44.96 148.354 45.504C148.002 46.016 147.57 46.48 147.058 46.896C146.578 47.312 146.002 47.648 145.33 47.904C144.69 48.16 143.938 48.288 143.074 48.288C142.05 48.288 141.042 48.096 140.05 47.712C139.058 47.328 138.146 46.704 137.314 45.84C136.514 44.976 135.858 43.84 135.346 42.432C134.866 40.992 134.626 39.232 134.626 37.152C134.626 35.68 134.786 34.16 135.106 32.592C135.458 31.024 135.986 29.584 136.69 28.272C137.426 26.96 138.37 25.888 139.522 25.056C140.706 24.192 142.13 23.76 143.794 23.76C144.178 23.76 144.594 23.792 145.042 23.856C145.49 23.888 145.922 24 146.338 24.192C146.754 24.352 147.138 24.608 147.49 24.96C147.842 25.28 148.114 25.728 148.306 26.304V24H155.218ZM145.954 26.736C145.186 26.736 144.514 27.072 143.938 27.744C143.394 28.384 142.946 29.2 142.594 30.192C142.274 31.152 142.034 32.224 141.874 33.408C141.714 34.56 141.634 35.664 141.634 36.72C141.634 38.416 141.762 39.744 142.018 40.704C142.274 41.632 142.578 42.32 142.93 42.768C143.314 43.184 143.714 43.44 144.13 43.536C144.546 43.6 144.898 43.632 145.186 43.632C145.538 43.632 145.89 43.552 146.242 43.392C146.626 43.2 146.962 42.928 147.25 42.576C147.57 42.224 147.826 41.792 148.018 41.28C148.21 40.768 148.306 40.16 148.306 39.456V28.56C148.242 28.432 148.162 28.272 148.066 28.08C147.97 27.856 147.826 27.648 147.634 27.456C147.442 27.264 147.202 27.104 146.914 26.976C146.658 26.816 146.338 26.736 145.954 26.736Z" fill="url(#paint0_linear_1_2)"/>
<path d="M3.09286 4.54601C3.1193 5.20154 3.35723 6.72236 3.64804 7.95475C4.07104 9.81644 3.99173 10.4982 3.09286 12.1501C1.77099 14.5887 1.74455 18.1547 3.03999 20.9342L3.99173 23.0319L2.61699 25.654C-1.34862 33.2318 3.46298 48.8596 10.4953 51.167C11.0241 51.3506 10.9976 51.6915 10.2574 52.819C9.72864 53.5794 9.46427 54.5758 9.62289 55.0215C10.1252 56.3064 11.4735 55.9131 12.3195 54.2611C13.6149 51.8226 14.3287 51.7177 14.1172 54.0251C13.8793 56.7259 15.5184 57.2765 16.4437 54.8118C17.369 52.4519 20.33 52.4257 21.1496 54.7855C21.599 55.9917 21.9956 56.3588 22.8416 56.2277C24.0313 56.0442 24.0577 55.9131 23.5025 53.5794C23.0266 51.5079 24.0841 51.7701 25.1416 53.9727C25.6175 54.9691 26.3577 55.8082 26.7279 55.8082C27.8118 55.8082 28.1555 54.3398 27.4417 52.7927C26.8601 51.4817 26.9658 51.2719 29.0544 49.5676C36.1131 43.7203 38.8097 33.1532 35.1085 25.654C33.7866 22.9794 33.7602 22.7434 34.5269 21.2488C35.6637 19.0463 35.5844 14.5362 34.3418 12.2288C33.5223 10.7342 33.4165 9.94755 33.7866 8.05963C34.7913 2.86786 34.3947 2.50077 30.0325 4.70334C27.7854 5.83084 27.098 5.93573 25.406 5.51619C21.2289 4.46735 18.1093 4.36246 14.3023 5.1491C10.5482 5.90951 10.4424 5.90951 7.7194 4.6509C4.20323 3.02519 3.09286 2.99897 3.09286 4.54601ZM15.0954 10.6817C16.0207 11.2586 17.184 12.3074 17.6863 13.0679L18.5852 14.4313L19.5633 12.963C22.4186 8.6365 29.0015 8.6365 31.6717 12.963C36.3511 20.5933 25.3003 27.8303 20.0128 20.5933L18.453 18.4694L17.8185 19.8329C15.9679 23.8971 9.86083 24.6576 6.55616 21.2226C1.13649 15.6113 8.40677 6.6437 15.0954 10.6817ZM20.0128 24.6051C20.0128 24.9722 19.6691 25.5491 19.2461 25.8899C18.1886 26.7815 16.9989 24.6313 17.9242 23.5038C18.638 22.6648 20.0128 23.3989 20.0128 24.6051ZM28.79 32.6025C28.79 36.0899 29.0808 38.7645 29.7682 41.0195L30.7463 44.3233L29.213 45.9228C23.9255 51.4293 14.1966 51.5604 8.7769 46.185L6.8734 44.3233L7.69296 41.8061C8.16883 40.2853 8.53896 37.0601 8.5654 33.6514C8.61827 30.5573 8.77689 28.0139 8.90908 28.0139C9.06771 28.0139 10.4953 28.5383 12.0816 29.1414C17.0518 31.0817 26.4371 30.1902 28.7635 27.5419C28.79 27.5157 28.8164 29.7969 28.79 32.6025Z" fill="white"/>
<path d="M8.9884 14.0118C7.37572 15.7424 7.48147 18.2072 9.25277 19.5969C11.4999 21.3537 13.7736 20.8293 15.1747 18.2072C17.184 14.4576 11.9494 10.8915 8.9884 14.0118Z" fill="white"/>
<path d="M23.1853 13.8545C20.0921 16.9224 24.1106 22.2452 27.7325 19.9116C29.636 18.6529 30.244 16.765 29.2923 14.9296C28.0497 12.5434 25.0359 12.019 23.1853 13.8545Z" fill="white"/>
</g>
<defs>
<linearGradient id="paint0_linear_1_2" x1="22" y1="30" x2="175" y2="30" gradientUnits="userSpaceOnUse">
<stop offset="1" stop-color="white"/>
</linearGradient>
<clipPath id="clip0_1_2">
<rect width="162" height="62" fill="white"/>
</clipPath>
</defs>
</svg>
